# xmcd
# 
# Track frame offsets:
#	150
#	13045
#	27296
#	39565
#	51411
#	65937
#	80940
#	97979
#	107794
#	125943
#	147234
#	163800
#	176128
#	186190
#	198428
#	211331
#	223647
#	239698
#	253257
#	271071
#	284516
#	298476
#
# Disc length: 4243 seconds
#
# Revision: 1
# Processed by: cddbd v1.5.1PL0 Copyright (c) Steve Scherf et al.
# Submitted via: Audio-CD-Archiv 3.00.486
#
DISCID=73109116
DTITLE=New Riders Of The Purple Sage - Home, Home On The Road/Brujo (1974)
DYEAR=1900
DGENRE=country
TTITLE0=Hi, Hello, How Are You? (live)
TTITLE1=She's No Angel (live)
TTITLE2=Groupie (live)
TTITLE3=Sunday Susie (live)
TTITLE4=Kick In The Head (live)
TTITLE5=Truck Drivin' Man (live)
TTITLE6=Hello Mary Lou (live)
TTITLE7=Sutter's Mill (live)
TTITLE8=Dead Flowers (live)
TTITLE9=Henry (live)
TTITLE10=School Days (live)
TTITLE11=Old Man Noll
TTITLE12=Ashes Of Love
TTITLE13=You Angel You
TTITLE14=Instant Armadillo Blues
TTITLE15=Workingman's Woman
TTITLE16=On The Amazon
TTITLE17=Big Wheels
TTITLE18=Singing Cowboy
TTITLE19=Crooked Judge
TTITLE20=Parson Brown
TTITLE21=Neon Rose
EXTD=
EXTT0=
EXTT1=
EXTT2=
EXTT3=
EXTT4=
EXTT5=
EXTT6=
EXTT7=
EXTT8=
EXTT9=
EXTT10=
EXTT11=
EXTT12=
EXTT13=
EXTT14=
EXTT15=
EXTT16=
EXTT17=
EXTT18=
EXTT19=
EXTT20=
EXTT21=
PLAYORDER=
